<svg xmlns="http://www.w3.org/2000/svg" version="1.1" xmlns:xlink="http://www.w3.org/1999/xlink" xmlns:svgjs="http://svgjs.com/svgjs" width="300" height="300"><svg version="1.1" id="SvgjsSvg1000" xmlns="http://www.w3.org/2000/svg" xmlns:xlink="http://www.w3.org/1999/xlink" x="0px" y="0px" viewBox="0 0 300 300" style="enable-background:new 0 0 300 300;" xml:space="preserve">
<g>
	<path d="M189.9,212c-0.1,1.6-0.2,3-0.3,4.5c0,0.1,0,0.2,0,0.3c0,0.4-0.1,0.8-0.5,0.8c-0.5,0-0.6-0.4-0.6-0.8c0-1.3,0-2.7,0.1-4
		c0.1-2,0.3-3.9,0.4-5.9c0.2-3.6,0.2-7.2,1.3-10.7c0-0.1,0-0.2,0-0.5c-0.3,0.2-0.5,0.4-0.7,0.6c-2.2,1.9-4.3,4-6.6,5.7
		c-3,2.2-6.1,4.2-9.2,6.2c-2.4,1.6-5,3-7.7,4c-1.3,0.5-2.5,1.1-3.8,1.7c-2.6,1.2-5.2,2.2-8.1,2.5c-2.7,0.3-5.5,0.3-8.2-0.2
		c-1-0.2-1.9-0.6-2.9-0.9c-1.2-0.4-2.4-0.7-3.6-1.2c-2.6-1-5.3-2-7.8-3.3c-4.8-2.3-9.5-4.9-13.9-7.9c-2.5-1.6-4.6-3.7-6.6-5.8
		c-0.2-0.3-0.5-0.5-0.9-0.9c0.2,1.3,0.4,2.4,0.6,3.4c0.5,2.9,0.5,5.8,0.5,8.7c0,2.2,0,4.4,0,6.5c0,0.4,0.2,0.9,0.2,1.3
		c0,0.2-0.1,0.5-0.2,0.6c-0.3,0.2-0.6,0-0.7-0.3c-0.1-0.3-0.1-0.7-0.1-1.1c0-3.1,0-6.2,0-9.4c0-3.5-0.4-7-1.2-10.5
		c-0.1-0.5-0.3-0.8-0.7-1.2c-1.9-2.2-3.8-4.4-5.7-6.6c-1.9-2.3-3.5-4.7-4.8-7.4c-1.9-3.8-3.7-7.6-5.5-11.5c-1.3-2.7-2-5.7-2.6-8.6
		c-0.9-4.7-1.8-9.5-1.6-14.3c0-0.8,0-1.6,0.1-2.4c0.2-1.7,0.1-3.5,0-5.2c0-0.4,0-0.8-0.4-1.1c-0.1,0-0.1-0.1-0.1-0.2
		c-0.9-1.9-1.9-3.8-2.7-5.8c-0.5-1.2-0.8-2.6-1.1-3.9c-0.4-2.1-1.1-4.1-2-6.1c-0.2-0.5-0.4-1-0.6-1.5c-0.9-2.1,0.2-5,2-6.3
		c0.6-0.4,1.2-0.6,2-0.5c0.8,0.1,1.6,0.3,2.6,0.5c-0.2-1-0.3-1.9-0.5-2.9c-0.1-0.9-0.4-1.7-0.9-2.5c-0.2-0.4-0.3-0.9,0.1-1.3
		c0.7-0.8,0.6-1.7,0.6-2.7c0-2-0.1-3.9-0.2-5.9c0-4.5,0.1-9,0-13.5c-0.1-4,0.5-8,1-12c0.2-1.8,0.8-3.5,1.7-5
		c0.5-0.9,1.1-1.7,1.7-2.5c1.6-1.7,3.3-3.3,4.9-4.9c2.5-2.5,4.9-5.1,7.5-7.5c5.7-5.4,11.7-10.5,18-15.1c3.7-2.7,7.6-5.1,12.1-6.6
		c2.6-0.8,5.1-1.7,7.7-2.6c2.4-0.8,4.8-0.7,7.3-0.3c3.6,0.7,7,2,10.3,3.5c2.7,1.3,5.4,2.5,8.1,3.8c0.8,0.4,1.6,0.9,2.4,1.3
		c2.4,1.3,4.9,2.6,7.3,3.9c2.4,1.3,4.7,2.7,6.7,4.4c3.4,2.9,6.6,5.9,9.9,8.8c0.9,0.8,1.7,1.6,2.5,2.4c1.6,1.7,3.3,3.4,4.8,5.2
		c2.1,2.5,4.1,5,6.1,7.5c0.3,0.4,0.6,0.9,0.7,1.4c0.7,2.5,1.2,5.1,1.4,7.8c0.1,1.8,0.4,3.7,0.6,5.5c0,0.4,0.1,0.7,0.1,1.1
		c0.2,4.8,0.3,9.6,0.4,14.4c0,1.8-0.1,3.7-0.1,5.5c0,0.2,0.1,0.5,0.2,0.7c1,0.8,0.7,1.9,0.7,2.9c-0.4,0-0.7,0-1.2,0
		c0.2,0.4,0.4,0.7,0.6,1c0.5-0.4,0.9-0.8,1.3-1c1.3-0.9,2.6-0.9,3.7,0.2c1.9,2,3,4.4,2.1,7.1c-1.2,3.7-1.7,7.6-2.4,11.4
		c-0.5,2.7-1.8,5-3.2,7.3c-0.2,0.3-0.6,0.5-1.1,0.9c0,0.1-0.1,0.4-0.1,0.7c-0.1,1.4-0.1,2.9-0.2,4.3c-0.3,4-0.6,8.1-1.1,12.1
		c-0.6,3.8-1.5,7.6-2.3,11.4c-0.4,1.9-0.8,3.8-1.4,5.7c-0.4,1.7-1,3.3-1.5,5c-0.4,1.2-0.8,2.4-1.2,3.6c-0.1,0.3-0.2,0.7-0.4,1
		c-1.4,2.8-2.9,5.5-4.8,8c-1.8,2.3-3.8,4.4-5.9,6.4c-0.3,0.3-0.4,0.6-0.6,1c-1,3.5-1.5,7-1.6,10.6c0,1.7-0.1,3.3-0.2,5
		c0.4,0.3,0.8,0.6,1.2,0.9c2.4,1.8,3,4.7,1.6,7.4c-0.8,1.6-2.1,3-3.5,4.1c-3.4,2.6-7.2,4.6-11.3,6c-5.1,1.9-10.4,3.2-15.7,4.1
		c-4.5,0.8-9.1,1.5-13.6,2.1c-7,0.9-14.1,1.1-21.2,0.4c-3.1-0.3-6.3-0.7-9.3-1.8c-3.9-1.4-7.3-3.5-10.3-6.3c-4-3.9-4.3-8.9-2-13.4
		c0.3-0.6,0.8-1.1,1.2-1.5c0.2-0.2,0.6-0.4,0.9-0.4c0.2,0,0.5,0.2,0.7,0.4c0.1,0.1-0.1,0.5-0.3,0.6c-1.3,0.7-1.8,2-2.1,3.3
		c-1.1,4-0.3,7.4,2.8,10.3c4.5,4.2,9.8,6.5,15.8,7.3c6.3,0.8,12.7,0.9,19,0.4c5.6-0.4,11.1-1.3,16.6-2.2c5.3-0.9,10.4-2.1,15.5-3.8
		c4.3-1.4,8.3-3.3,12-6c1.5-1.1,2.8-2.3,3.7-4c1.2-2.2,0.6-4.5-1.4-6C190.4,212.2,190.3,212.1,189.9,212z M146.9,114
		c0.1,0.1,0.2,0.2,0.3,0.2c-0.2,0.3-0.3,0.5-0.5,0.7c-0.8,1-1.5,1.9-2.3,2.9c-0.2,0.3-0.4,0.9-0.6,1c-0.7,0.2-0.8,0.8-1,1.3
		c-0.7,1.2-1.3,2.5-2.1,3.7c-2.3,3.6-5.2,6.6-8.8,8.9c-8.7,5.5-19.4,5.1-27.2-1.3c-4.6-3.7-7.5-8.4-9.1-14c-0.6-2.1-1-4.1-1.6-6.2
		c-0.4-1.6-2-2.8-4.1-2.3c-0.5,0.1-0.8,0.5-0.8,1c0,0.4,0.1,0.9,0.2,1.3c0.6,2.8,0.9,5.7,0.8,8.6c-0.1,2.6-0.1,5.1-0.2,7.7
		c-0.2,6.8,0.2,13.6,0.7,20.3c0.3,5.1,1.7,10,3.7,14.7c1.7,3.8,3.7,7.6,5.6,11.3c1.1,2.1,2.2,4.2,3.5,6.2c3,4.6,6.4,8.9,10.3,12.8
		c5.4,5.6,12,9,19.5,10.9c2.2,0.6,4.4,0.5,6.7,0.7c2.3,0.2,4.4-0.2,6.4-1.2c1.3-0.6,2.7-1.2,4.1-1.8c0.7-0.3,1.2-0.4,1.9,0
		c1,0.5,2.1,0.9,3.2,1.2c2.3,0.7,4.7,1,7.1,1c2.6,0,5.1-0.2,7.5-1.2c1.8-0.8,3.5-1.7,5.3-2.6c4.4-2.4,8.7-5.1,12.2-8.8
		c0.2-0.2,0.3-0.3,0.5-0.4c4.9-4.5,8.8-9.7,11.6-15.8c8.1-18,11.7-36.9,10.8-56.6c-0.1-2.1-0.1-4.3-0.9-6.3
		c-0.1-0.3-0.1-0.7-0.1-1.1c0-0.9,0-1.7,0-2.8c-0.4,0.2-0.7,0.3-0.9,0.5c-0.3,0.3-0.5,0.7-0.6,1c-0.6,1.9-1.3,3.7-1.7,5.6
		c-0.6,2.3-1.3,4.6-2.5,6.7c-2.4,4.3-5.6,8-9.9,10.7c-1.9,1.2-3.8,2.1-5.8,2.8c-2.5,0.8-5.1,1-7.7,0.8c-3.4-0.2-6.7-0.9-9.6-2.7
		c-7.8-4.7-12.5-11.7-14.5-20.5c-0.2-0.8-0.4-1.7-0.5-2.6c-0.1-0.8-0.6-1.1-1.4-1.3c-1.9-0.4-3.9-0.5-5.8-0.3
		c-0.9,0.1-1.6,0.4-1.9,1.2c-0.9,2.3-1.7,4.5-2.5,6.8C145.2,116.1,145.7,114.8,146.9,114z M209.3,104.4c0-0.4,0.1-0.7,0.1-0.9
		c-0.1-2.6-0.2-5.2-0.3-7.8c-0.1-1.8-0.3-3.7-1-5.4c-0.9-2.2-1.7-4.5-2.5-6.8c-0.2-0.7-0.4-1.5-0.5-2.2c-0.3-2.3-0.7-4.7-1.3-6.9
		c-0.3-0.9-0.6-1.9-0.9-2.8c-0.8-2-2-3.7-3.2-5.4c-2.4-3.3-4.7-6.5-7.6-9.4c-1.2-1.2-2.3-2.4-3.4-3.5c-1.2-1.1-2.4-2.2-3.6-3.3
		c-1.6-1.4-3.4-2.7-5-4c-0.3-0.3-0.7-0.5-1.1-0.7c-6.1-3.3-12.5-5.7-19.2-7c-0.4-0.1-0.7-0.1-1.1-0.1c-2,0.3-4,0.8-5.9,1.8
		c-1,0.6-2.1,1-3.1,1.5c-0.2,0.1-0.6,0.2-0.8,0.1c-1.1-0.4-2.2-0.7-3.3-1.2c-3.6-1.5-7.4-1.8-11.2-1.2c-1.8,0.3-3.5,0.8-5.3,1.3
		c-3.7,0.9-7.2,2.4-10.4,4.6c-3.9,2.6-7.6,5.6-11,8.8c-3.6,3.4-6.5,7.2-8.8,11.7c-1.6,3.2-2.9,6.4-4,9.7c-0.4,1.2-0.7,2.5-1,3.8
		c-0.2,0.7-0.1,1.4-0.3,2c-0.7,2.7-1.5,5.5-2.1,8.2c-1.2,4.9-1.5,9.9-1.7,14.9c0,0.4,0,0.8,0,1.3c0.2,0,0.3,0,0.3,0
		c7.7-3.4,15.9-4.7,24.2-5.4c3.8-0.3,7.7-0.3,11.5,0c4.8,0.3,9.4,1.3,13.8,3.1c2.4,1,4.9,1.7,7.5,2.1c2.8,0.4,5.7,0.3,8.6-0.3
		c2.6-0.5,5.1-1.3,7.6-2.1c6.1-1.9,12.3-2.8,18.6-3.1c4.1-0.2,8.2-0.1,12.3,0.4c5.1,0.5,10,1.7,14.6,4.1
		C208.8,104.2,209,104.3,209.3,104.4z M120.1,101.4c-4.5,0-8.2,0.3-11.9,0.9c-2.6,0.5-5.1,1.1-7.5,2.2c-1.5,0.7-2.6,1.8-2.9,3.5
		c-0.6,3-0.8,6-0.3,9.1c1.9,12.3,13.2,20.2,25.4,17.8c11.7-2.4,20.5-13.2,20.5-25.2c0-1.2-0.4-2-1.4-2.7c-2.7-1.9-5.5-3.4-8.8-4.1
		C128.7,101.9,124.1,101.5,120.1,101.4z M184.3,101.1c-2.4,0.1-4.7,0.2-7.1,0.4c-2.9,0.2-5.8,0.8-8.6,1.6c-3.3,1-6.3,2.7-9.4,4.3
		c-0.6,0.3-0.8,0.8-0.8,1.4c0,1.4,0,2.8,0.1,4.1c0.4,4.9,2.1,9.2,5.1,13.1c7,9.1,19,11.7,28.7,5.9c8.4-5,12.3-12.7,12.3-22.4
		c0-2.3-1.1-4.2-3.1-5.4c-1.2-0.7-2.6-1.2-3.9-1.6C193.3,101.4,188.8,101.2,184.3,101.1z M211.5,133.4c0.1,0,0.1,0,0.2,0.1
		c0.1-0.2,0.3-0.4,0.4-0.6c1.4-2.2,2.2-4.7,2.6-7.3c0.5-3,0.8-6.1,1.9-9c0.9-2.3,0.3-4.4-1.1-6.3c-0.9-1.3-1.8-1.4-3-0.4
		c-0.6,0.5-1.1,1.2-1.6,1.8c0.1,0.9,0.2,1.8,0.4,2.9c0.3-0.4,0.6-0.6,0.8-0.9c0.5-0.4,0.9-0.8,1.4-1.1c0.3-0.2,0.7-0.3,0.9,0.1
		c0.2,0.4-0.1,0.6-0.4,0.9c-0.6,0.5-1.1,1-1.7,1.5c-0.3,0.3-0.6,0.7-1,1.3C212,121.9,211.8,127.7,211.5,133.4z M88.3,134.7
		c0.1,0,0.2,0,0.3,0c0-0.3,0-0.7,0-1c0-2.5,0.1-5.1,0.1-7.6c0-3.2,0-6.3,0-9.5c0-0.8-0.5-1.4-1.3-1.6c-0.3-0.1-0.6-0.1-0.9-0.2
		c-1.2-0.4-2.1,0-2.7,1c-0.2,0.3-0.4,0.5-0.5,0.8c-0.7,1.4-0.5,2.8,0.1,4.2c0.7,1.6,1.3,3.1,1.8,4.8c0.4,1.2,0.5,2.4,0.8,3.6
		C86.5,131,87.2,132.9,88.3,134.7z"></path>
	<path d="M168,245.4c0,0.8-0.6,1.1-1.3,1.5c-1.1,0.6-2.2,1.4-3.3,2.1c-5.4,3.7-10.3,7.8-15.1,12.2c-0.1,0.1-0.1,0.2-0.2,0.3
		c0.2,0.2,0.3,0.4,0.5,0.6c1.8,2.1,3.7,4.2,5.5,6.3c0.1,0.1,0.2,0.3,0.3,0.4c0.3,0.5,0.2,1-0.2,1.3c-0.4,0.3-0.9,0.3-1.3-0.1
		c-0.4-0.4-0.8-0.9-1.2-1.3c-1.5-1.7-3-3.4-4.5-5.1c-0.2-0.2-0.4-0.4-0.7-0.7c-0.3,0.3-0.6,0.5-0.9,0.8c-2.1,2.3-4.2,4.7-6.4,7
		c-0.2,0.3-0.5,0.6-0.7,0.8c-0.4,0.3-0.8,0.3-1.2,0c-0.4-0.3-0.5-0.8-0.2-1.3c0.2-0.3,0.4-0.6,0.6-0.9c2.2-2.4,4.4-4.9,6.7-7.3
		c0.2-0.2,0.5-0.4,0.7-0.6c-0.3-0.3-0.4-0.6-0.6-0.8c-3.5-3.5-7-7.1-10.5-10.6c-0.8-0.8-1.7-1.4-2.5-2.1c-0.5-0.4-1-0.9-1.7-1.6
		c-3.3-0.6-6.9-1.4-10.5-2.4c-5-1.5-9.7-3.6-14-6.6c-2.2-1.5-4.2-3.3-5.9-5.5c-1.7-2.3-2.9-4.8-3.2-7.7c-0.3-2.8,0.4-5.4,1.6-7.9
		c1.6-3,3.8-5.3,6.5-7.4c0.7-0.6,1.4-1.1,2.1-1.7c0.2-0.2,0.5-0.3,0.8-0.3c0.2,0,0.6,0.1,0.7,0.3c0.1,0.2,0,0.5-0.1,0.8
		c-0.1,0.2-0.4,0.3-0.6,0.4c-2.7,1.8-5.1,3.9-7,6.6c-1.3,1.9-2.3,3.9-2.6,6.3c-0.4,2.5,0.1,4.8,1.2,7.1c1.4,2.9,3.5,5.1,6,7
		c3.6,2.8,7.8,4.8,12.1,6.4c5.7,2,11.5,3.3,17.4,4c5.5,0.7,10.9,0.8,16.4,0.6c10.5-0.5,20.8-2.3,30.6-6.5c4.2-1.8,8.2-4.1,11.6-7.2
		c2.3-2.1,4.2-4.5,5.3-7.5c1.3-3.7,0.8-7.3-1.2-10.7c-1.3-2.2-3.1-4.1-5.2-5.7c-0.3-0.2-0.6-0.4-0.7-0.6c-0.1-0.2-0.2-0.6-0.1-0.8
		c0.1-0.4,0.5-0.3,0.8-0.2c0.2,0.1,0.3,0.2,0.5,0.3c2.1,1.6,4,3.5,5.4,5.7c3.2,5,3.3,10,0.4,15.1c-1.7,3-4.2,5.4-7,7.4
		c-4.1,3-8.6,5.2-13.4,6.9c-2.6,0.9-5.2,1.6-7.8,2.3C169.2,245.2,168.6,245.3,168,245.4z M163.3,246.5c-9.9,1.5-19.8,1.7-29.7,0.6
		c4.6,4.1,8.6,8.6,13,12.8C151.9,255.1,157.3,250.4,163.3,246.5z"></path>
	<path d="M143.2,166.8c0.5,0.1,1.4,0.2,2.2,0.5c2.2,0.8,4.4,0.6,6.6-0.3c1.4-0.6,2.8-0.8,4.3-0.4c2.4,0.6,4.6,1.4,6.5,2.9
		c1.5,1.1,2.8,2.4,4.2,3.6c0.5,0.4,0.9,0.9,1.4,1.4c0.2,0.2,0.4,0.5,0.6,0.8c0.2,0.4,0,0.8-0.5,0.8c-0.4,0-0.9-0.1-1.3-0.1
		c-1.9-0.3-3.8-0.8-5.8-1c-1.8-0.2-3.6-0.2-5.4-0.1c-1.7,0.1-3.4,0.4-5.2,0.5c-1.3,0.1-2.6,0-3.9-0.2c-4.6-0.5-9.1-0.5-13.6,0.4
		c-0.8,0.2-1.6,0.6-2.5,0.8c-0.2,0.1-0.5,0.2-0.7,0.3c-0.4,0.2-0.9,0.4-1.2,0c-0.3-0.5,0.2-0.8,0.5-1.1c2-1.8,4-3.7,6.1-5.4
		c1.3-1.1,2.8-1.9,4.3-2.8C140.6,167,141.6,166.8,143.2,166.8z M132.5,174.5c1.8-0.2,3.4-0.5,5.1-0.6c2.9-0.2,5.8-0.3,8.7,0.2
		c2.2,0.4,4.3,0.4,6.5,0c3.9-0.6,7.8-0.8,11.6,0.3c0.6,0.2,1.3,0.2,1.9,0.3c-2.7-3.3-5.9-5.8-10.1-6.8c-1.1-0.3-2.2-0.2-3.3,0.1
		c-0.8,0.3-1.5,0.5-2.3,0.7c-1.5,0.4-3,0.4-4.5,0c-0.7-0.2-1.5-0.4-2.2-0.6c-0.9-0.3-1.8-0.3-2.7,0.1c-0.7,0.3-1.4,0.5-2.1,0.9
		C136.7,170.6,134.7,172.5,132.5,174.5z"></path>
	<path d="M137,158.1c0.8,0.1,1.5,0.3,1.8,1c0.4,0.8,0.4,1.6-0.2,2.3c-0.6,0.7-1.3,1.3-2,1.8c-2.2,1.5-4.6,2.8-6.8,4.3
		c-2,1.3-3.8,2.7-5.7,4.1c-0.5,0.3-0.9,0.7-1.4,1c-0.3,0.1-0.7,0.2-1,0.1c-0.4-0.2-0.5-0.7-0.3-1c0.4-0.8,0.7-1.7,1.3-2.4
		c2.6-3.4,6-6.1,9.6-8.4c1.1-0.7,2.1-1.4,3.2-2C135.9,158.4,136.5,158.3,137,158.1z"></path>
	<path d="M161.7,157.8c1.1,0.4,2.2,0.7,3.2,1.2c3.9,2,7.2,4.6,9.4,8.4c0.4,0.7,1,1.4,1.3,2.1c0.3,0.6,0.5,1.3,0.5,2
		c0,0.3-0.2,0.8-0.5,1c-0.4,0.3-0.8,0-1.1-0.2c-0.4-0.4-0.8-0.7-1.2-1.1c-1.5-1.5-2.9-3-4.4-4.6c-1.2-1.2-2.6-2-4.2-2.7
		c-1.3-0.6-2.5-1.1-3.8-1.7c-1.3-0.6-1.7-1.6-1.3-3C160.1,158.3,160.6,157.9,161.7,157.8z"></path>
	<path d="M148.8,185.3c-3.9-0.1-8.2-0.8-12.1-2.9c-0.5-0.3-1.1-0.6-1.6-0.9c-0.4-0.2-0.6-0.5-0.4-1c0.2-0.4,0.6-0.4,1.1,0
		c2.7,1.7,5.6,2.7,8.7,3.2c4.4,0.7,8.7,0.6,13-0.9c1.8-0.6,3.5-1.5,4.9-2.8c0.1-0.1,0.2-0.3,0.3-0.3c0.3,0,0.6,0,0.8,0.1
		c0.1,0.1,0.1,0.5,0,0.7c-0.1,0.3-0.4,0.5-0.6,0.7c-1.3,1.2-2.8,2-4.4,2.6C155.5,184.9,152.5,185.3,148.8,185.3z"></path>
	<path d="M158.1,153.1c-0.3-0.1-0.7-0.1-1-0.2c-1.2-0.4-1.7-1.6-1.1-2.7c0.8-1.8,3.8-3,5.7-2.3c1.3,0.5,1.7,1.8,0.9,3
		C161.5,152.4,160,153,158.1,153.1z"></path>
	<path d="M139.3,148.4c1.7,0.1,3.3,0.7,4.6,1.9c0.6,0.5,1.1,1.1,0.8,2c-0.3,0.8-1.1,1-1.9,1c-1.9,0-3.5-0.7-4.9-1.9
		c-0.1,0-0.1-0.1-0.2-0.2c-0.4-0.6-0.8-1.1-0.5-1.9c0.3-0.7,0.9-0.8,1.6-0.9C139,148.4,139.2,148.4,139.3,148.4z"></path>
	<path d="M136.2,138.2c0.1,0.4,0.4,0.7,0.3,0.9c-0.1,0.3-0.4,0.5-0.6,0.8c-2,2.2-3.5,4.6-3.5,7.7c0,2.4,1,4.3,3,5.7
		c0.3,0.2,0.6,0.4,0.8,0.6c0.1,0.1,0.1,0.4,0,0.6c-0.1,0.1-0.4,0.3-0.5,0.2c-0.3-0.1-0.6-0.3-0.9-0.4c-2.8-1.9-4.1-5.1-3.4-8.6
		c0.5-2.7,1.9-5,3.9-6.9C135.6,138.6,135.8,138.5,136.2,138.2z"></path>
	<path d="M168.5,148.3c-0.1,3-1.1,5.4-3.8,6.9c-0.3,0.2-0.6,0.3-0.9,0.3c-0.1,0-0.4-0.1-0.4-0.2c0-0.2,0-0.4,0.1-0.6
		c0.1-0.2,0.4-0.2,0.6-0.3c2.4-1.2,3.6-3.7,3.4-6.4c-0.2-3-1.5-5.5-3.5-7.6c-0.2-0.2-0.4-0.4-0.6-0.6c-0.1-0.2-0.1-0.5,0-0.6
		c0.2-0.1,0.4-0.1,0.7-0.1c0.1,0,0.2,0.2,0.3,0.3C166.8,141.8,168.4,144.7,168.5,148.3z"></path>
	<path d="M148.8,187.3c1.7,0.1,2.8,0.4,3.9,1.1c0.3,0.2,0.6,0.5,0.4,0.9c-0.2,0.3-0.5,0.3-0.9,0.2c-0.3-0.1-0.5-0.3-0.8-0.4
		c-1.6-0.7-3.1-0.8-4.7,0c-0.4,0.2-0.8,0.6-1.2,0c-0.2-0.3,0-0.7,0.8-1C147.2,187.7,148.2,187.4,148.8,187.3z"></path>
	<path d="M151.1,164.5c-0.8-0.2-1.5-0.4-2.2-0.7c-0.9-0.3-1.3-1.2-1.6-2.1c-0.1-0.2,0.1-0.5,0.2-0.5c0.2-0.1,0.5,0,0.7,0.1
		c0.1,0.1,0.2,0.3,0.3,0.4c0.3,0.9,1,1.3,1.9,1.4c0.3,0.1,0.7,0.1,0.9,0.3c0.2,0.1,0.3,0.5,0.3,0.7
		C151.6,164.2,151.3,164.4,151.1,164.5z"></path>
	<path d="M143.7,121.2c0-0.2,0-0.5,0.1-0.6c1.1-1.4,2.1-2.7,3.2-4c0.1-0.1,0.4-0.1,0.5-0.2c0,0.2,0.1,0.4,0,0.6
		c-0.4,0.6-0.9,1.1-1.4,1.7c-0.5,0.6-1,1.3-1.5,2c-0.2,0.3-0.5,0.5-0.7,0.8C143.9,121.3,143.8,121.2,143.7,121.2z"></path>
	<path d="M146.7,119.6c0.1,0.1,0.1,0.1,0.1,0.2c0,0.1,0,0.2,0,0.3c-1.1,1.4-2.2,2.8-3.4,4.2c-0.1,0.1-0.2,0.1-0.5,0.2
		c0-0.3-0.1-0.5,0-0.7c1-1.5,2.1-3,3.4-4.2C146.5,119.7,146.6,119.7,146.7,119.6z"></path>
	<path d="M142.3,126.7c1.1-1.5,2.1-3,3.8-4.2c0,0.4,0.1,0.6,0,0.7c-1,1.2-2,2.5-3.1,3.7c-0.1,0.1-0.4,0.1-0.6,0.2
		C142.4,126.9,142.3,126.8,142.3,126.7z"></path>
	<path d="M145,126.6c-0.9,1.1-1.8,2.2-2.7,3.3c-0.1,0-0.2,0-0.3-0.1c0-0.2-0.1-0.5-0.1-0.6c0.7-0.9,1.5-1.8,2.3-2.7
		c0.1-0.1,0.4-0.1,0.6-0.2C144.9,126.4,144.9,126.5,145,126.6z"></path>
	<path d="M140,136.7c-0.1-0.4-0.2-0.6-0.2-0.8c0.2-0.4,1.9-2.1,2.5-2.4c0,0.2,0.2,0.4,0.1,0.5C141.6,134.9,140.9,135.7,140,136.7z"></path>
	<path d="M143.5,129.9c-0.4,1.2-1.2,1.9-1.8,2.7c-0.1,0.1-0.4,0.1-0.6,0.1C141.3,131.9,142.6,130.3,143.5,129.9z"></path>
	<path d="M97.9,98.9c4-4.4,8.8-7.3,14.5-8.9c3.9-1.1,7.9-1.3,11.9-1.1c1.3,0.1,2.5,0.4,3.7,0.9c1.5,0.6,3.1,1,4.5,2
		c0.5,0.4,1,0.8,1.4,1.3c0.4,0.4,0.5,0.9,0.2,1.5c-0.3,0.6-0.9,0.9-1.5,0.8c-0.5,0-0.9-0.1-1.4-0.3c-4.9-1.6-9.9-1.5-15-0.9
		c-4.1,0.5-8.2,1.2-12.1,2.5c-1.7,0.6-3.3,1.4-5,2.1C98.7,99,98.4,99.3,97.9,98.9z"></path>
	<path d="M164.2,94.7c0-0.4-0.1-0.6,0-0.7c0.9-2.3,2.2-4.2,4.8-5c2.2-0.6,4.4-0.9,6.6-0.9c4.9,0,9.7,0.9,14.2,2.6
		c2.1,0.8,4.2,1.9,5.9,3.3c0.3-0.2,0.5-0.6,0.8-0.6c0.3,0,0.7,0.3,1,0.6c0.5,0.5,0.9,1.1,1.3,1.6c0.2,0.3,0.3,0.6,0,0.9
		c-0.4,0.3-0.7,0.1-0.9-0.1c-0.2-0.2-0.4-0.5-0.6-0.7c-0.9,0.6-0.9,0.5-1.7,0.1c-1.1-0.5-2.2-1-3.3-1.2c-4.8-1.1-9.8-1.4-14.7-1.4
		c-3.1,0-6.2,0.1-9.3,0.5c-1.1,0.2-2.1,0.5-3.2,0.8C164.8,94.5,164.6,94.6,164.2,94.7z"></path>
	<path d="M125.2,110.5c-0.1,0.5-0.2,0.8-0.3,1.2c-0.3,1-0.8,1.9-1.5,2.6c-2,2-5,1.8-6.7-0.4c-0.8-1-1.2-2.1-1.3-3.3
		c0-0.3-0.1-0.6-0.1-1c-0.2,0-0.4,0-0.6,0c-3,0.7-5.6,2-7.5,4.5c-0.2,0.2-0.3,0.4-0.5,0.6c-0.2,0.1-0.5,0.1-0.7,0
		c-0.2-0.1-0.3-0.4-0.2-0.6c0.1-0.3,0.3-0.5,0.4-0.7c1.2-1.5,2.7-2.7,4.4-3.5c0.3-0.2,0.6-0.3,0.9-0.6c-1.6,0.3-3.1,0.9-4.4,1.9
		c-0.2,0.1-0.3,0.3-0.5,0.4c-0.2,0.1-0.4,0-0.7,0c0-0.2,0-0.6,0.1-0.7c0.8-0.6,1.6-1.2,2.5-1.6c1.6-0.8,3.3-1.2,5.1-1.5
		c2.2-0.4,4.5-0.5,6.7,0c3.2,0.7,6.3,1.7,9,3.7c0.5,0.3,0.9,0.7,1.3,1.2c0.1,0.1,0.1,0.6,0,0.7c-0.1,0.1-0.5,0.2-0.8,0.1
		c-0.3-0.1-0.5-0.3-0.7-0.5C127.9,111.8,126.7,111,125.2,110.5z M120.6,110.5c0.1,0,0.2,0,0.2,0c0.1-0.3,0.2-0.7,0.4-1.1
		c-0.4,0-0.7,0-1,0C120.3,109.8,120.4,110.1,120.6,110.5z"></path>
	<path d="M119,117.2c-2.8,0-5.5-0.5-8.1-1.8c-0.4-0.2-0.8-0.5-1.2-0.8c-0.1-0.1-0.1-0.4,0-0.5c0.1-0.1,0.3-0.2,0.5-0.2
		c0.2,0,0.4,0.2,0.6,0.3c4,2.1,8.1,2.5,12.4,1.5c1.2-0.3,2.4-0.8,3.2-1.8c0.2-0.3,0.5-0.5,0.8-0.2c0.1,0.1,0,0.6-0.1,0.8
		c-0.6,0.8-1.5,1.3-2.5,1.7C122.9,117,121,117.2,119,117.2z"></path>
	<path d="M115.1,120c-2.3-0.1-4.5-0.6-6.5-1.8c-0.3-0.2-0.5-0.4-0.7-0.6c-0.1-0.1-0.1-0.4,0-0.5c0.1-0.1,0.3-0.2,0.5-0.1
		c0.2,0,0.3,0.2,0.5,0.3c2.5,1.6,5.2,2.2,8.2,1.7c0.1,0,0.3-0.1,0.4-0.1c0.2,0.1,0.5,0.2,0.5,0.3c0,0.1-0.1,0.5-0.3,0.5
		c-0.6,0.2-1.3,0.2-1.9,0.3C115.5,120,115.3,120,115.1,120z"></path>
	<path d="M188.9,109.6c-0.4-0.1-0.7-0.2-1-0.3c-3.3-1.4-6.7-1.6-10.1-0.8c-0.2,0-0.4,0.1-0.6,0.3c0.3,0,0.5,0,0.8,0
		c5.7-0.6,10.9,0.8,15.9,3.5c0.4,0.2,0.9,0.4,0.7,1c-0.1,0.4-0.6,0.4-1.3,0c-2.6-1.4-5.3-2.4-8.1-3c-0.4,2.9-1.8,5-4.8,5.8
		c0.3,0.1,0.6,0.1,0.9,0.2c1.7,0.2,3.5,0.2,5.2-0.1c1.2-0.3,2.4-0.7,3.3-1.5c0.2-0.2,0.5-0.4,0.7-0.1c0.1,0.1,0,0.5-0.2,0.6
		c-0.6,0.5-1.3,0.9-2,1.2c-1.8,0.8-3.7,0.9-5.7,0.8c-3.3-0.2-6.4-1-9.4-2.6c-0.3-0.2-0.6-0.3-0.8-0.5c-0.3-0.2-0.8-0.4-0.4-0.8
		c0.3-0.4,0.6,0,0.9,0.1c1.1,0.5,2.1,1.1,3.2,1.6c0.5,0.2,1.1,0.4,1.7,0.5c-1.7-1.1-2.6-2.8-3.1-4.7c-2.2,0.8-4,2-5.3,3.9
		c-0.1,0.2-0.3,0.4-0.4,0.6c-0.2,0.3-0.5,0.4-0.8,0.2c-0.3-0.2-0.3-0.6-0.1-0.9c0.4-0.7,0.8-1.4,1.4-2c2.6-2.8,5.8-4.5,9.5-5.1
		c3.2-0.6,6.4-0.4,9.5,1C188.7,108.9,188.7,108.9,188.9,109.6z M178,111.3c0.1,0,0.1,0,0.2,0c0-0.3,0-0.6-0.1-1
		c0-0.1-0.3-0.2-0.6-0.4C177.7,110.6,177.9,111,178,111.3z"></path>
	<path d="M186.6,119.5c0.3,0.5,0,0.8-0.3,0.9c-0.7,0.3-1.5,0.6-2.3,0.7c-3,0.4-5.9-0.1-8.6-1.4c-0.3-0.2-0.6-0.4-0.9-0.6
		c0.5-0.6,0.8-0.2,1.1-0.1c2.1,1,4.4,1.5,6.7,1.5c1.3,0,2.5-0.2,3.7-0.8C186.2,119.5,186.4,119.5,186.6,119.5z"></path>
	<path d="M87.7,119.8c0,0.4-0.3,0.7-0.7,0.6c-0.3-0.1-0.5-0.3-0.7-0.5c-0.5-0.3-0.9-0.5-1.4-0.8c-0.2-0.1-0.4-0.3-0.4-0.4
		c0-0.2,0.2-0.5,0.4-0.6c0.2-0.1,0.5-0.1,0.6,0c0.7,0.5,1.4,1,2.1,1.5C87.6,119.6,87.6,119.7,87.7,119.8z"></path>
</g>
</svg><style>@media (prefers-color-scheme: light) { :root { filter: none; } }
@media (prefers-color-scheme: dark) { :root { filter: invert(100%); } }
</style></svg>