<svg xmlns="http://www.w3.org/2000/svg" version="1.1" xmlns:xlink="http://www.w3.org/1999/xlink" xmlns:svgjs="http://svgjs.com/svgjs" width="1000" height="1000"><g transform="matrix(3.8461538461538463,0,0,3.8461538461538463,0,0)"><svg xmlns="http://www.w3.org/2000/svg" version="1.1" xmlns:xlink="http://www.w3.org/1999/xlink" xmlns:svgjs="http://svgjs.com/svgjs" width="260" height="260"><svg version="1.1" id="Ebene_1" xmlns="http://www.w3.org/2000/svg" xmlns:xlink="http://www.w3.org/1999/xlink" x="0px" y="0px" viewBox="0 0 260 260" style="enable-background:new 0 0 260 260;" xml:space="preserve">
<style type="text/css">
	.st0{fill:#0E0E0E;}
	.st1{fill:#FFFFFF;}
</style>
<rect class="st0" width="260" height="260"></rect>
<path class="st1" d="M195.7,118.9c-2.6,8-7.5,14.5-14.8,19.6c-7.2,5-15.9,7.6-26,7.6c-5.4,0-10.5-1-15.1-2.9
	c-4.6-1.9-9.1-4-13.3-6.1c-4.2-2.2-8.5-4.2-12.7-6.1c-4.2-1.9-8.8-2.9-13.6-2.9c-5.6,0-10.8,1.6-15.6,4.7c-4.7,3.1-8.8,7-12.2,11.7
	l-8.2-3.7c1.4-4,3.5-7.7,6.3-11c2.8-3.3,6-6.1,9.7-8.5c3.6-2.3,7.5-4.2,11.6-5.5c4.1-1.3,8.2-2,12.2-2c8,0,14.4,0.9,19,2.7
	c4.6,1.8,8.7,3.8,12.1,5.9c3.4,2.1,6.8,4,10.3,5.9c3.4,1.8,8,2.7,13.9,2.7c5.2,0,10.2-1.2,14.8-3.7c4.6-2.4,9-6.8,13-13.1
	L195.7,118.9z"></path>
</svg></svg></g></svg>