<?xml version="1.0" standalone="no"?>
<!DOCTYPE svg PUBLIC "-//W3C//DTD SVG 20010904//EN"
 "http://www.w3.org/TR/2001/REC-SVG-20010904/DTD/svg10.dtd">
<svg version="1.0" xmlns="http://www.w3.org/2000/svg"
 width="700.000000pt" height="700.000000pt" viewBox="0 0 700.000000 700.000000"
 preserveAspectRatio="xMidYMid meet">
<metadata>
Created by potrace 1.14, written by Peter Selinger 2001-2017
</metadata>
<g transform="translate(0.000000,700.000000) scale(0.100000,-0.100000)"
fill="#000000" stroke="none">
<path d="M0 3500 l0 -3500 3500 0 3500 0 0 3500 0 3500 -3500 0 -3500 0 0
-3500z m3102 415 c54 -8 133 -26 175 -40 102 -35 276 -118 391 -188 290 -177
381 -209 602 -209 173 -1 255 17 397 87 109 54 227 159 313 279 30 42 57 76
61 76 3 0 55 -27 115 -59 84 -46 108 -64 106 -78 -5 -32 -80 -181 -121 -242
-161 -236 -437 -406 -741 -456 -181 -29 -408 -16 -555 31 -82 27 -229 91 -415
182 -495 240 -510 245 -725 246 -137 0 -157 -2 -230 -27 -161 -54 -342 -182
-465 -331 l-61 -74 -32 13 c-95 39 -187 85 -187 92 0 4 20 48 45 98 162 327
538 573 945 619 59 7 280 -5 382 -19z"/>
</g>
</svg>
