<?xml version="1.0" encoding="utf-8"?>
<!-- Generator: Adobe Illustrator 25.0.0, SVG Export Plug-In . SVG Version: 6.00 Build 0)  -->
<svg version="1.1" id="Layer_1" xmlns="http://www.w3.org/2000/svg" xmlns:xlink="http://www.w3.org/1999/xlink" x="0px" y="0px"
	 viewBox="0 0 496 512" style="enable-background:new 0 0 496 512;" xml:space="preserve">
<style type="text/css">
	.st0{fill-rule:evenodd;clip-rule:evenodd;fill:#221E1B;}
</style>
<path class="st0" d="M248,14.1c-136.9,0-248,111-248,248c0,109.6,71.1,202.5,169.6,235.3c12.4,2.3,16.9-5.4,16.9-12
	c0-5.9-0.2-21.5-0.3-42.2c-69,15-83.5-33.2-83.5-33.2c-11.3-28.6-27.5-36.3-27.5-36.3c-22.5-15.4,1.7-15.1,1.7-15.1
	c24.9,1.8,38,25.6,38,25.6c22.1,37.9,58,27,72.2,20.6c2.3-16,8.7-27,15.7-33.2c-55.1-6.3-113-27.5-113-122.6
	c0-27.1,9.7-49.2,25.5-66.5c-2.6-6.3-11.1-31.5,2.4-65.6c0,0,20.8-6.7,68.2,25.4c19.8-5.5,41-8.3,62.1-8.3
	c21.1,0.1,42.3,2.8,62.1,8.3c47.3-32.1,68.1-25.4,68.1-25.4c13.5,34.1,5,59.4,2.5,65.6c15.9,17.3,25.5,39.5,25.5,66.5
	c0,95.3-58,116.2-113.2,122.4c8.9,7.7,16.8,22.8,16.8,45.9c0,33.2-0.3,59.9-0.3,68c0,6.6,4.5,14.3,17.1,11.9
	C425,464.6,496,371.7,496,262.1C496,125.2,385,14.1,248,14.1z"/>
</svg>
